<?xml version="1.0" standalone="no"?>
<!DOCTYPE svg PUBLIC "-//W3C//DTD SVG 20010904//EN"
 "http://www.w3.org/TR/2001/REC-SVG-20010904/DTD/svg10.dtd">
<svg version="1.0" xmlns="http://www.w3.org/2000/svg"
 width="260.000000pt" height="260.000000pt" viewBox="0 0 260.000000 260.000000"
 preserveAspectRatio="xMidYMid meet">
<metadata>
Created by potrace 1.14, written by Peter Selinger 2001-2017
</metadata>
<g transform="translate(0.000000,260.000000) scale(0.100000,-0.100000)"
fill="#000000" stroke="none">
<path d="M492 1924 c-22 -15 -22 -18 -22 -270 0 -215 -3 -260 -16 -287 -25
-50 -44 -66 -88 -78 -63 -17 -76 -33 -76 -98 0 -70 16 -102 55 -113 43 -12
257 9 349 34 105 28 190 85 228 155 37 65 48 160 48 415 0 181 -7 233 -33 250
-7 4 -104 8 -217 8 -170 0 -209 -3 -228 -16z"/>
<path d="M1129 1514 l-24 -26 0 -368 0 -368 24 -26 c23 -24 31 -26 113 -26
123 0 128 6 128 144 0 103 5 136 20 136 4 0 38 -56 75 -125 80 -148 102 -175
145 -175 45 0 51 8 207 263 13 21 27 35 32 33 4 -3 11 -56 14 -118 3 -62 8
-121 12 -131 11 -26 46 -32 217 -32 183 0 195 5 209 92 12 74 11 614 -2 673
-16 73 -31 80 -168 80 l-114 0 -36 -38 c-20 -21 -76 -97 -124 -169 -47 -72
-91 -134 -97 -138 -17 -10 -32 7 -120 135 -45 65 -100 139 -122 164 l-40 46
-162 0 c-162 0 -163 0 -187 -26z"/>
</g>
</svg>
